<svg xmlns="http://www.w3.org/2000/svg" width="16.552" height="16.552" viewBox="0 0 16.552 16.552"><defs><style>.a{fill:none;stroke:#000;stroke-linecap:round;stroke-linejoin:round;stroke-width:1.333px;}</style></defs><g transform="translate(0.943 0.943)"><path class="a" d="M11.96,11.96A6.713,6.713,0,0,1,8,13.333C3.333,13.333.667,8,.667,8A12.3,12.3,0,0,1,4.04,4.04M6.6,2.827A6.08,6.08,0,0,1,8,2.667C12.667,2.667,15.333,8,15.333,8a12.333,12.333,0,0,1-1.44,2.127m-4.48-.713A2,2,0,1,1,6.587,6.587" transform="translate(-0.667 -0.667)"/><path class="a" d="M.667.667,15.333,15.333" transform="translate(-0.667 -0.667)"/></g></svg>