<svg xmlns="http://www.w3.org/2000/svg" xmlns:xlink="http://www.w3.org/1999/xlink" width="1420.884" height="214.36" viewBox="0 0 1420.884 214.36"><defs><style>.a{fill:#fff;opacity:0.22;}.b,.c{stroke:none;}.c{fill:#5f5c5c;}.d{filter:url(#a);}</style><filter id="a" x="0" y="0" width="1420.884" height="214.36" filterUnits="userSpaceOnUse"><feOffset dx="10" dy="10" input="SourceAlpha"/><feGaussianBlur stdDeviation="5" result="b"/><feFlood flood-opacity="0.161"/><feComposite operator="in" in2="b"/><feComposite in="SourceGraphic"/></filter></defs><g class="d" transform="matrix(1, 0, 0, 1, 0, 0)"><g class="a" transform="translate(5 5)"><path class="b" d="M 1336.272705078125 183.8596343994141 L 845.0277709960938 183.8596343994141 L 54.61140823364258 183.8596343994141 C 47.31213760375977 183.8596343994141 40.23086547851562 182.2916259765625 33.56450271606445 179.1992645263672 C 30.35922813415527 177.7125396728516 27.26759147644043 175.8719940185547 24.37522888183594 173.7290802001953 C 21.5094108581543 171.6056213378906 18.8143196105957 169.1667175292969 16.36468315124512 166.4803619384766 C 13.91450119018555 163.7930755615234 11.68977355957031 160.8358154296875 9.752501487731934 157.6909027099609 C 7.79613733291626 154.5150756835938 6.115773677825928 151.1198120117188 4.758137226104736 147.5994415283203 C 1.932682871818542 140.2730865478516 0.4999555647373199 132.489990234375 0.4999555647373199 124.4661712646484 L 0.4999555647373199 59.8934440612793 C 0.4999555647373199 51.86962890625 1.932682871818542 44.0865364074707 4.758137226104736 36.76017379760742 C 6.115773677825928 33.23981094360352 7.79613733291626 29.84453773498535 9.752501487731934 26.6687183380127 C 11.68977355957031 23.5238094329834 13.91450119018555 20.56653594970703 16.36468315124512 17.87926483154297 C 18.8143196105957 15.19290065765381 21.5094108581543 12.75399112701416 24.37522888183594 10.63053703308105 C 27.26759147644043 8.487627983093262 30.35922813415527 6.647082328796387 33.56450271606445 5.160355091094971 C 40.23086547851562 2.067991495132446 47.31213760375977 0.49999138712883 54.61140823364258 0.49999138712883 L 971.1723022460938 0.49999138712883 L 1336.272705078125 0.49999138712883 C 1343.571899414062 0.49999138712883 1350.653076171875 2.067991495132446 1357.319458007812 5.160355091094971 C 1360.524658203125 6.647082328796387 1363.616333007812 8.487627983093262 1366.508666992188 10.63053703308105 C 1369.37451171875 12.75399112701416 1372.069580078125 15.19290065765381 1374.519287109375 17.87926483154297 C 1376.969360351562 20.56653594970703 1379.194091796875 23.5238094329834 1381.131469726562 26.6687183380127 C 1383.087768554688 29.84453773498535 1384.768188476562 33.23981094360352 1386.125732421875 36.76017379760742 C 1388.951171875 44.0865364074707 1390.383911132812 51.86962890625 1390.383911132812 59.8934440612793 L 1390.383911132812 124.4661712646484 C 1390.383911132812 132.489990234375 1388.951171875 140.2730865478516 1386.125732421875 147.5994415283203 C 1384.768188476562 151.1198120117188 1383.087768554688 154.5150756835938 1381.131469726562 157.6909027099609 C 1379.194091796875 160.8358154296875 1376.969360351562 163.7930755615234 1374.519287109375 166.4803619384766 C 1372.069580078125 169.1667175292969 1369.37451171875 171.6056213378906 1366.508666992188 173.7290802001953 C 1363.616333007812 175.8719940185547 1360.524658203125 177.7125396728516 1357.319458007812 179.1992645263672 C 1350.653076171875 182.2916259765625 1343.571899414062 183.8596343994141 1336.272705078125 183.8596343994141 Z"/><path class="c" d="M 54.6114501953125 0.9999847412109375 C 47.38525390625 0.9999847412109375 40.3748779296875 2.552352905273438 33.7750244140625 5.613815307617188 C 30.6004638671875 7.086532592773438 27.5380859375 8.909439086914062 24.6728515625 11.0323486328125 C 21.8330078125 13.13653564453125 19.1619873046875 15.55345153808594 16.734130859375 18.21617126464844 C 14.3048095703125 20.88053894042969 12.0989990234375 23.81253051757812 10.1781005859375 26.93089294433594 C 8.2379150390625 30.08071899414062 6.5712890625 33.44816589355469 5.2247314453125 36.93998718261719 C 2.42138671875 44.20872497558594 1 51.93144226074219 1 59.89344787597656 L 1 124.4661712646484 C 1 132.4281768798828 2.42138671875 140.1509094238281 5.2247314453125 147.4196319580078 C 6.5712890625 150.9114379882812 8.2379150390625 154.2789001464844 10.1781005859375 157.4287109375 C 12.0989990234375 160.5470886230469 14.3048095703125 163.4790802001953 16.734130859375 166.1434478759766 C 19.1619873046875 168.8061676025391 21.8330078125 171.2230834960938 24.6728515625 173.3272705078125 C 27.5380859375 175.4501800537109 30.6004638671875 177.2730865478516 33.7750244140625 178.7458038330078 C 40.3748779296875 181.8072662353516 47.38525390625 183.3596343994141 54.6114501953125 183.3596343994141 L 1336.2724609375 183.3596343994141 C 1343.498657226562 183.3596343994141 1350.509033203125 181.8072662353516 1357.10888671875 178.7458038330078 C 1360.283447265625 177.2730865478516 1363.345825195312 175.4501800537109 1366.211059570312 173.3272705078125 C 1369.050903320312 171.2230834960938 1371.721923828125 168.8061676025391 1374.149780273438 166.1434478759766 C 1376.5791015625 163.4790802001953 1378.784912109375 160.5470886230469 1380.705810546875 157.4287109375 C 1382.64599609375 154.2789001464844 1384.312622070312 150.9114379882812 1385.6591796875 147.4196319580078 C 1388.462524414062 140.1509094238281 1389.883911132812 132.4281768798828 1389.883911132812 124.4661712646484 L 1389.883911132812 59.89344787597656 C 1389.883911132812 51.93144226074219 1388.462524414062 44.20872497558594 1385.6591796875 36.93998718261719 C 1384.312622070312 33.44816589355469 1382.64599609375 30.08071899414062 1380.705810546875 26.93089294433594 C 1378.784912109375 23.81253051757812 1376.5791015625 20.88053894042969 1374.149780273438 18.21617126464844 C 1371.721923828125 15.55345153808594 1369.050903320312 13.13653564453125 1366.211059570312 11.0323486328125 C 1363.345825195312 8.909439086914062 1360.283447265625 7.086532592773438 1357.10888671875 5.613815307617188 C 1350.509033203125 2.552352905273438 1343.498657226562 0.9999847412109375 1336.2724609375 0.9999847412109375 L 54.6114501953125 0.9999847412109375 M 54.6114501953125 -1.52587890625e-05 C 54.6114501953125 -1.52587890625e-05 650.7570190429688 -1.52587890625e-05 971.17236328125 -1.52587890625e-05 C 1291.587646484375 -1.52587890625e-05 1336.2724609375 -1.52587890625e-05 1336.2724609375 -1.52587890625e-05 C 1366.43359375 -1.52587890625e-05 1390.883911132812 26.81526184082031 1390.883911132812 59.89344787597656 L 1390.883911132812 124.4661712646484 C 1390.883911132812 157.5443572998047 1366.43359375 184.3596343994141 1336.2724609375 184.3596343994141 C 1336.2724609375 184.3596343994141 1165.442993164062 184.3596343994141 845.0277709960938 184.3596343994141 C 524.6126708984375 184.3596343994141 54.6114501953125 184.3596343994141 54.6114501953125 184.3596343994141 C 24.4503173828125 184.3596343994141 0 157.5443572998047 0 124.4661712646484 L 0 59.89344787597656 C 0 26.81526184082031 24.4503173828125 -1.52587890625e-05 54.6114501953125 -1.52587890625e-05 Z"/></g></g></svg>