<svg xmlns="http://www.w3.org/2000/svg" xmlns:xlink="http://www.w3.org/1999/xlink" width="1351.167" height="170.645" viewBox="0 0 1351.167 170.645"><defs><style>.a{fill:#fff;}.b,.c{stroke:none;}.c{fill:#fffdfd;}.d{filter:url(#a);}</style><filter id="a" x="0" y="0" width="1351.167" height="170.645" filterUnits="userSpaceOnUse"><feOffset dx="10" dy="10" input="SourceAlpha"/><feGaussianBlur stdDeviation="5" result="b"/><feFlood flood-opacity="0.161"/><feComposite operator="in" in2="b"/><feComposite in="SourceGraphic"/></filter></defs><g class="d" transform="matrix(1, 0, 0, 1, 0, 0)"><g class="a" transform="translate(5 5)"><path class="b" d="M 1269.29345703125 140.1445922851562 L 802.6717529296875 140.1445922851562 L 51.87407302856445 140.1445922851562 C 44.930908203125 140.1445922851562 38.19607543945312 138.9470977783203 31.85690689086914 136.5854339599609 C 25.73723983764648 134.3054351806641 20.24207305908203 131.0422668457031 15.52407360076904 126.8865966796875 C 10.81057357788086 122.7349319458008 7.110740184783936 117.9019317626953 4.52724027633667 112.5217666625977 C 1.855073571205139 106.9567642211914 0.5000735521316528 101.045768737793 0.5000735521316528 94.95293426513672 L 0.5000735521316528 45.69160079956055 C 0.5000735521316528 39.5987663269043 1.855073571205139 33.68776702880859 4.52724027633667 28.12276649475098 C 7.110740184783936 22.74259948730469 10.81057357788086 17.90959930419922 15.52407360076904 13.75793266296387 C 20.24207305908203 9.602265357971191 25.73723983764648 6.339098930358887 31.85690689086914 4.059098720550537 C 38.19607543945312 1.697432279586792 44.930908203125 0.4999322891235352 51.87407302856445 0.4999322891235352 L 922.493408203125 0.4999322891235352 L 1269.29345703125 0.4999322891235352 C 1276.236572265625 0.4999322891235352 1282.97119140625 1.697432279586792 1289.310546875 4.059098720550537 C 1295.430297851562 6.339098930358887 1300.925415039062 9.602265357971191 1305.643432617188 13.75793266296387 C 1310.35693359375 17.90959930419922 1314.056762695312 22.74259948730469 1316.640258789062 28.12276649475098 C 1319.312622070312 33.68776702880859 1320.667602539062 39.5987663269043 1320.667602539062 45.69160079956055 L 1320.667602539062 94.95293426513672 C 1320.667602539062 101.045768737793 1319.312622070312 106.9567642211914 1316.640258789062 112.5217666625977 C 1314.056762695312 117.9019317626953 1310.35693359375 122.7349319458008 1305.643432617188 126.8865966796875 C 1300.925415039062 131.0422668457031 1295.430297851562 134.3054351806641 1289.310546875 136.5854339599609 C 1282.97119140625 138.9470977783203 1276.236572265625 140.1445922851562 1269.29345703125 140.1445922851562 Z"/><path class="c" d="M 51.8740234375 0.99993896484375 C 44.99072265625 0.99993896484375 38.314697265625 2.186767578125 32.0313720703125 4.52777099609375 C 25.96923828125 6.786270141601562 20.526611328125 10.01792907714844 15.8546142578125 14.13310241699219 C 11.1917724609375 18.24026489257812 7.5322265625 23.01976776123047 4.9779052734375 28.33926391601562 C 2.3382568359375 33.83609771728516 0.9998779296875 39.67426300048828 0.9998779296875 45.69159698486328 L 0.9998779296875 94.95292663574219 C 0.9998779296875 100.9702606201172 2.3382568359375 106.8084335327148 4.9779052734375 112.3052673339844 C 7.5322265625 117.6247634887695 11.1917724609375 122.4042663574219 15.8546142578125 126.5114288330078 C 20.526611328125 130.6266021728516 25.96923828125 133.8582611083984 32.0313720703125 136.1167602539062 C 38.314697265625 138.457763671875 44.99072265625 139.6445922851562 51.8740234375 139.6445922851562 L 1269.29345703125 139.6445922851562 C 1276.1767578125 139.6445922851562 1282.852783203125 138.457763671875 1289.135864257812 136.1167602539062 C 1295.1982421875 133.8582611083984 1300.640869140625 130.6266021728516 1305.312866210938 126.5114288330078 C 1309.975708007812 122.4042663574219 1313.635131835938 117.6247634887695 1316.189453125 112.3052673339844 C 1318.8291015625 106.8084335327148 1320.167358398438 100.9702606201172 1320.167358398438 94.95292663574219 L 1320.167358398438 45.69159698486328 C 1320.167358398438 39.67426300048828 1318.8291015625 33.83609771728516 1316.189453125 28.33926391601562 C 1313.635131835938 23.01976776123047 1309.975708007812 18.24026489257812 1305.312866210938 14.13310241699219 C 1300.640869140625 10.01792907714844 1295.1982421875 6.786270141601562 1289.135864257812 4.52777099609375 C 1282.852783203125 2.186767578125 1276.1767578125 0.99993896484375 1269.29345703125 0.99993896484375 L 51.8740234375 0.99993896484375 M 51.8740234375 -6.103515625e-05 C 51.8740234375 -6.103515625e-05 618.1385498046875 -6.103515625e-05 922.493408203125 -6.103515625e-05 C 1226.848266601562 -6.103515625e-05 1269.29345703125 -6.103515625e-05 1269.29345703125 -6.103515625e-05 C 1297.942626953125 -6.103515625e-05 1321.167358398438 20.45676422119141 1321.167358398438 45.69159698486328 L 1321.167358398438 94.95292663574219 C 1321.167358398438 120.1877670288086 1297.942626953125 140.6445922851562 1269.29345703125 140.6445922851562 C 1269.29345703125 140.6445922851562 1107.026611328125 140.6445922851562 802.6717529296875 140.6445922851562 C 498.3170776367188 140.6445922851562 51.8740234375 140.6445922851562 51.8740234375 140.6445922851562 C 23.224853515625 140.6445922851562 -0.0001220703125 120.1877670288086 -0.0001220703125 94.95292663574219 L -0.0001220703125 45.69159698486328 C -0.0001220703125 20.45676422119141 23.224853515625 -6.103515625e-05 51.8740234375 -6.103515625e-05 Z"/></g></g></svg>