<svg xmlns="http://www.w3.org/2000/svg" xmlns:xlink="http://www.w3.org/1999/xlink" width="194.688" height="100" viewBox="0 0 194.688 100"><defs><style>.a{fill:#293462;}.b,.c{stroke:none;}.c{fill:#707070;}.d{filter:url(#a);}</style><filter id="a" x="0" y="0" width="194.688" height="100" filterUnits="userSpaceOnUse"><feOffset dx="10" dy="10" input="SourceAlpha"/><feGaussianBlur stdDeviation="5" result="b"/><feFlood flood-opacity="0.161"/><feComposite operator="in" in2="b"/><feComposite in="SourceGraphic"/></filter></defs><g class="d" transform="matrix(1, 0, 0, 1, 0, 0)"><g class="a" transform="translate(5 5)"><path class="b" d="M 136.5703277587891 69.5 L 105.8426666259766 69.5 L 28.1174144744873 69.5 C 24.40360069274902 69.5 20.79968452453613 68.59397888183594 17.40578842163086 66.80710601806641 C 14.11853885650635 65.07637786865234 11.16430950164795 62.59622955322266 8.625205039978027 59.43558502197266 C 6.079601287841797 56.26687622070312 4.08035135269165 52.5750617980957 2.68301796913147 48.46270751953125 C 1.234476208686829 44.19964599609375 0.499997079372406 39.67014694213867 0.499997079372406 35 C 0.499997079372406 30.32985496520996 1.234476208686829 25.80035400390625 2.68301796913147 21.53729248046875 C 4.08035135269165 17.4249382019043 6.079601287841797 13.73312473297119 8.625205039978027 10.56441688537598 C 11.16430950164795 7.403770923614502 14.11853885650635 4.923624992370605 17.40578842163086 3.192895889282227 C 20.79968452453613 1.406020879745483 24.40360069274902 0.5 28.1174144744873 0.5 L 136.5703277587891 0.5 C 140.2841644287109 0.5 143.8880767822266 1.406020879745483 147.281982421875 3.192895889282227 C 150.5692291259766 4.923624992370605 153.5234375 7.403770923614502 156.0625610351562 10.56441688537598 C 158.6081390380859 13.73312473297119 160.6073913574219 17.4249382019043 162.0047302246094 21.53729248046875 C 163.4532623291016 25.80035400390625 164.187744140625 30.32985496520996 164.187744140625 35 C 164.187744140625 39.67014694213867 163.4532623291016 44.19964599609375 162.0047302246094 48.46270751953125 C 160.6073913574219 52.5750617980957 158.6081390380859 56.26687622070312 156.0625610351562 59.43558502197266 C 153.5234375 62.59622955322266 150.5692291259766 65.07637786865234 147.281982421875 66.80710601806641 C 143.8880767822266 68.59397888183594 140.2841644287109 69.5 136.5703277587891 69.5 Z"/><path class="c" d="M 28.11741638183594 1 C 24.485595703125 1 20.96003723144531 1.886642456054688 17.63870239257812 3.635330200195312 C 14.41241455078125 5.333976745605469 11.51095581054688 7.770603179931641 9.014968872070312 10.8775634765625 C 6.50604248046875 14.00062561035156 4.534927368164062 17.64120864868164 3.15643310546875 21.69814682006836 C 1.72552490234375 25.9092903137207 1 30.38468933105469 1 35 C 1 39.61531066894531 1.72552490234375 44.09070587158203 3.15643310546875 48.30185699462891 C 4.534927368164062 52.35879135131836 6.50604248046875 55.99937438964844 9.014968872070312 59.1224365234375 C 11.51095581054688 62.22939682006836 14.41241455078125 64.66602325439453 17.63870239257812 66.36466979980469 C 20.96003723144531 68.11335754394531 24.485595703125 69 28.11741638183594 69 L 136.5703277587891 69 C 140.2021484375 69 143.7276916503906 68.11335754394531 147.0490112304688 66.36466979980469 C 150.2753295898438 64.66602325439453 153.1767730712891 62.22939682006836 155.6727447509766 59.1224365234375 C 158.1816864013672 55.99935531616211 160.1527862548828 52.35879135131836 161.5313110351562 48.30185699462891 C 162.9622039794922 44.09070587158203 163.687744140625 39.61531066894531 163.687744140625 35 C 163.687744140625 30.38468933105469 162.9622039794922 25.9092903137207 161.5313110351562 21.69814682006836 C 160.1527862548828 17.64120864868164 158.1816864013672 14.00064468383789 155.6727447509766 10.8775634765625 C 153.1767730712891 7.770603179931641 150.2753295898438 5.333976745605469 147.0490112304688 3.635330200195312 C 143.7276916503906 1.886642456054688 140.2021484375 1 136.5703277587891 1 L 28.11741638183594 1 M 28.11741638183594 0 L 136.5703277587891 0 C 152.0991363525391 0 164.687744140625 15.67004013061523 164.687744140625 35 C 164.687744140625 54.3299560546875 152.0991363525391 70 136.5703277587891 70 L 28.11741638183594 70 C 12.58857727050781 70 0 54.3299560546875 0 35 C 0 15.67004013061523 12.58857727050781 0 28.11741638183594 0 Z"/></g></g></svg>