<svg xmlns="http://www.w3.org/2000/svg" xmlns:xlink="http://www.w3.org/1999/xlink" width="1420.884" height="196.446" viewBox="0 0 1420.884 196.446"><defs><style>.a{fill:#fff;opacity:0.22;}.b,.c{stroke:none;}.c{fill:#5d5d5d;}.d{filter:url(#a);}</style><filter id="a" x="0" y="0" width="1420.884" height="196.446" filterUnits="userSpaceOnUse"><feOffset dx="10" dy="10" input="SourceAlpha"/><feGaussianBlur stdDeviation="5" result="b"/><feFlood flood-opacity="0.161"/><feComposite operator="in" in2="b"/><feComposite in="SourceGraphic"/></filter></defs><g class="d" transform="matrix(1, 0, 0, 1, 0, 0)"><g class="a" transform="translate(5 5)"><path class="b" d="M 1336.272705078125 165.9455413818359 L 54.61140823364258 165.9455413818359 C 47.31522750854492 165.9455413818359 40.2366828918457 164.3057250976562 33.57250213623047 161.071533203125 C 30.36759185791016 159.5160827636719 27.27613830566406 157.5906219482422 24.38395500183105 155.3488159179688 C 21.51777458190918 153.1269836425781 18.8221378326416 150.5749969482422 16.37213706970215 147.7639007568359 C 13.92104625701904 144.9513549804688 11.69559192657471 141.8564453125 9.75759220123291 138.5648040771484 C 7.800319194793701 135.2406311035156 6.119046688079834 131.6866302490234 4.760683059692383 128.0017242431641 C 1.933410167694092 120.331901550293 0.4999555647373199 112.1838989257812 0.4999555647373199 103.7837142944336 L 0.4999555647373199 62.66189956665039 C 0.4999555647373199 54.26171875 1.933410167694092 46.11371612548828 4.760683059692383 38.44390106201172 C 6.119046688079834 34.75899124145508 7.800319194793701 31.20499038696289 9.75759220123291 27.88080978393555 C 11.69559192657471 24.58917236328125 13.92104625701904 21.4942626953125 16.37213706970215 18.68171882629395 C 18.8221378326416 15.87062740325928 21.51777458190918 13.31862735748291 24.38395500183105 11.09680843353271 C 27.27613830566406 8.85499095916748 30.36759185791016 6.92953634262085 33.57250213623047 5.374081611633301 C 40.2366828918457 2.139899730682373 47.31522750854492 0.5000815391540527 54.61140823364258 0.5000815391540527 L 1336.272705078125 0.5000815391540527 C 1343.56884765625 0.5000815391540527 1350.6474609375 2.139899730682373 1357.311645507812 5.374081611633301 C 1360.516357421875 6.92953634262085 1363.607788085938 8.85499095916748 1366.5 11.09680843353271 C 1369.366088867188 13.31862735748291 1372.061767578125 15.87062740325928 1374.51171875 18.68171882629395 C 1376.962890625 21.4942626953125 1379.188354492188 24.58917236328125 1381.126342773438 27.88080978393555 C 1383.083618164062 31.20499038696289 1384.764892578125 34.75899124145508 1386.123168945312 38.44390106201172 C 1388.950561523438 46.11371612548828 1390.383911132812 54.26171875 1390.383911132812 62.66189956665039 L 1390.383911132812 103.7837142944336 C 1390.383911132812 112.1838989257812 1388.950561523438 120.331901550293 1386.123168945312 128.0017242431641 C 1384.764892578125 131.6866302490234 1383.083618164062 135.2406311035156 1381.126342773438 138.5648040771484 C 1379.188354492188 141.8564453125 1376.962890625 144.9513549804688 1374.51171875 147.7639007568359 C 1372.061767578125 150.5749969482422 1369.366088867188 153.1269836425781 1366.5 155.3488159179688 C 1363.607788085938 157.5906219482422 1360.516357421875 159.5160827636719 1357.311645507812 161.071533203125 C 1350.6474609375 164.3057250976562 1343.56884765625 165.9455413818359 1336.272705078125 165.9455413818359 Z"/><path class="c" d="M 54.6114501953125 1.000076293945312 C 47.391357421875 1.000076293945312 40.3863525390625 2.62298583984375 33.7906494140625 5.824081420898438 C 30.6170654296875 7.3642578125 27.55517578125 9.271347045898438 24.6903076171875 11.49208068847656 C 21.849609375 13.69407653808594 19.177978515625 16.22354125976562 16.749267578125 19.01026916503906 C 14.318359375 21.79953002929688 12.11083984375 24.86935424804688 10.1884765625 28.13444519042969 C 8.246337890625 31.4329833984375 6.5780029296875 34.95989990234375 5.22998046875 38.61698913574219 C 2.423095703125 46.23117065429688 1 54.32099151611328 1 62.66190338134766 L 1 103.7837219238281 C 1 112.124626159668 2.423095703125 120.2144470214844 5.22998046875 127.8286285400391 C 6.5780029296875 131.4857177734375 8.246337890625 135.0126342773438 10.1884765625 138.3111724853516 C 12.11083984375 141.5762634277344 14.318359375 144.6460876464844 16.749267578125 147.4353485107422 C 19.177978515625 150.2220764160156 21.849609375 152.7515411376953 24.6903076171875 154.9535369873047 C 27.55517578125 157.1742553710938 30.6170654296875 159.0813598632812 33.7906494140625 160.6215362548828 C 40.3863525390625 163.8226318359375 47.391357421875 165.4455413818359 54.6114501953125 165.4455413818359 L 1336.2724609375 165.4455413818359 C 1343.492553710938 165.4455413818359 1350.49755859375 163.8226318359375 1357.09326171875 160.6215362548828 C 1360.266845703125 159.0813598632812 1363.328735351562 157.1742553710938 1366.193603515625 154.9535369873047 C 1369.034301757812 152.7515411376953 1371.705932617188 150.2220764160156 1374.134643554688 147.4353485107422 C 1376.565551757812 144.6460876464844 1378.773071289062 141.5762634277344 1380.695434570312 138.3111724853516 C 1382.637573242188 135.0126342773438 1384.305908203125 131.4857177734375 1385.653930664062 127.8286285400391 C 1388.460815429688 120.2144470214844 1389.883911132812 112.124626159668 1389.883911132812 103.7837219238281 L 1389.883911132812 62.66190338134766 C 1389.883911132812 54.32099151611328 1388.460815429688 46.23117065429688 1385.653930664062 38.61698913574219 C 1384.305908203125 34.95989990234375 1382.637573242188 31.4329833984375 1380.695434570312 28.13444519042969 C 1378.773071289062 24.86935424804688 1376.565551757812 21.79953002929688 1374.134643554688 19.01026916503906 C 1371.705932617188 16.22354125976562 1369.034301757812 13.69407653808594 1366.193603515625 11.49208068847656 C 1363.328735351562 9.271347045898438 1360.266845703125 7.3642578125 1357.09326171875 5.824081420898438 C 1350.49755859375 2.62298583984375 1343.492553710938 1.000076293945312 1336.2724609375 1.000076293945312 L 54.6114501953125 1.000076293945312 M 54.6114501953125 7.62939453125e-05 L 1336.2724609375 7.62939453125e-05 C 1366.43359375 7.62939453125e-05 1390.883911132812 28.05462646484375 1390.883911132812 62.66190338134766 L 1390.883911132812 103.7837219238281 C 1390.883911132812 138.3909912109375 1366.43359375 166.4455413818359 1336.2724609375 166.4455413818359 L 54.6114501953125 166.4455413818359 C 24.4503173828125 166.4455413818359 0 138.3909912109375 0 103.7837219238281 L 0 62.66190338134766 C 0 28.05462646484375 24.4503173828125 7.62939453125e-05 54.6114501953125 7.62939453125e-05 Z"/></g></g></svg>