<svg xmlns="http://www.w3.org/2000/svg" xmlns:xlink="http://www.w3.org/1999/xlink" width="1420.884" height="210.32" viewBox="0 0 1420.884 210.32"><defs><style>.a{fill:#fff;opacity:0.22;}.b,.c{stroke:none;}.c{fill:#5e5c5c;}.d{filter:url(#a);}</style><filter id="a" x="0" y="0" width="1420.884" height="210.32" filterUnits="userSpaceOnUse"><feOffset dx="10" dy="10" input="SourceAlpha"/><feGaussianBlur stdDeviation="5" result="b"/><feFlood flood-opacity="0.161"/><feComposite operator="in" in2="b"/><feComposite in="SourceGraphic"/></filter></defs><g class="d" transform="matrix(1, 0, 0, 1, 0, 0)"><g class="a" transform="translate(5 5)"><path class="b" d="M 1336.272705078125 179.8196716308594 L 845.0277709960938 179.8196716308594 L 54.61140823364258 179.8196716308594 C 47.31068420410156 179.8196716308594 40.2281379699707 178.2858581542969 33.56068420410156 175.2607574462891 C 30.35522842407227 173.806396484375 27.2634105682373 172.0062103271484 24.37104606628418 169.9100341796875 C 21.50522804260254 167.8333129882812 18.8103199005127 165.4480285644531 16.36104583740234 162.8207550048828 C 13.91104602813721 160.1927642822266 11.68668270111084 157.3009490966797 9.749773979187012 154.2254943847656 C 7.79395580291748 151.1200256347656 6.114137172698975 147.8000335693359 4.756682872772217 144.357666015625 C 1.932137370109558 137.1942138671875 0.4999555647373199 129.5840301513672 0.4999555647373199 121.7387619018555 L 0.4999555647373199 58.58094024658203 C 0.4999555647373199 50.73566818237305 1.932137370109558 43.12548828125 4.756682872772217 35.96203231811523 C 6.114137172698975 32.51966857910156 7.79395580291748 29.19966888427734 9.749773979187012 26.09421539306641 C 11.68668270111084 23.01876068115234 13.91104602813721 20.1269416809082 16.36104583740234 17.49894142150879 C 18.8103199005127 14.87166881561279 21.50522804260254 12.48639678955078 24.37104606628418 10.40966892242432 C 27.2634105682373 8.31348705291748 30.35522842407227 6.5133056640625 33.56068420410156 5.058941841125488 C 40.2281379699707 2.033851146697998 47.31068420410156 0.500032901763916 54.61140823364258 0.500032901763916 L 971.1723022460938 0.500032901763916 L 1336.272705078125 0.500032901763916 C 1343.573364257812 0.500032901763916 1350.65576171875 2.033851146697998 1357.3232421875 5.058941841125488 C 1360.528686523438 6.5133056640625 1363.620483398438 8.31348705291748 1366.512817382812 10.40966892242432 C 1369.378662109375 12.48639678955078 1372.073608398438 14.87166881561279 1374.522827148438 17.49894142150879 C 1376.972900390625 20.1269416809082 1379.197265625 23.01876068115234 1381.134155273438 26.09421539306641 C 1383.089965820312 29.19966888427734 1384.769897460938 32.51966857910156 1386.127197265625 35.96203231811523 C 1388.951782226562 43.12548828125 1390.383911132812 50.73566818237305 1390.383911132812 58.58094024658203 L 1390.383911132812 121.7387619018555 C 1390.383911132812 129.5840301513672 1388.951782226562 137.1942138671875 1386.127197265625 144.357666015625 C 1384.769897460938 147.8000335693359 1383.089965820312 151.1200256347656 1381.134155273438 154.2254943847656 C 1379.197265625 157.3009490966797 1376.972900390625 160.1927642822266 1374.522827148438 162.8207550048828 C 1372.073608398438 165.4480285644531 1369.378662109375 167.8333129882812 1366.512817382812 169.9100341796875 C 1363.620483398438 172.0062103271484 1360.528686523438 173.806396484375 1357.3232421875 175.2607574462891 C 1350.65576171875 178.2858581542969 1343.573364257812 179.8196716308594 1336.272705078125 179.8196716308594 Z"/><path class="c" d="M 54.6114501953125 1.000030517578125 C 47.38232421875 1.000030517578125 40.369384765625 2.518753051757812 33.7674560546875 5.51422119140625 C 30.59228515625 6.954757690429688 27.52978515625 8.738037109375 24.66455078125 10.81439208984375 C 21.82470703125 12.87239074707031 19.1541748046875 15.23603820800781 16.7266845703125 17.83984375 C 14.298095703125 20.4449462890625 12.09326171875 23.31184387207031 10.1728515625 26.36076354980469 C 8.233642578125 29.44003295898438 6.5677490234375 32.73204040527344 5.221923828125 36.14549255371094 C 2.4205322265625 43.25021362304688 1 50.79876708984375 1 58.58094024658203 L 1 121.7387619018555 C 1 129.5209350585938 2.4205322265625 137.0694885253906 5.221923828125 144.1742095947266 C 6.5677490234375 147.5876770019531 8.233642578125 150.8796691894531 10.1728515625 153.9589385986328 C 12.09326171875 157.0078430175781 14.298095703125 159.874755859375 16.7266845703125 162.4798583984375 C 19.1541748046875 165.0836639404297 21.82470703125 167.4473114013672 24.66455078125 169.5053100585938 C 27.52978515625 171.5816650390625 30.59228515625 173.3649444580078 33.7674560546875 174.8054809570312 C 40.369384765625 177.8009490966797 47.38232421875 179.3196716308594 54.6114501953125 179.3196716308594 L 1336.2724609375 179.3196716308594 C 1343.501586914062 179.3196716308594 1350.514526367188 177.8009490966797 1357.116455078125 174.8054809570312 C 1360.291625976562 173.3649444580078 1363.354125976562 171.5816650390625 1366.219360351562 169.5053100585938 C 1369.059204101562 167.4473114013672 1371.729736328125 165.0836639404297 1374.1572265625 162.4798583984375 C 1376.585815429688 159.874755859375 1378.790649414062 157.0078430175781 1380.711059570312 153.9589385986328 C 1382.650268554688 150.8796691894531 1384.316162109375 147.5876770019531 1385.661987304688 144.1742095947266 C 1388.46337890625 137.0694885253906 1389.883911132812 129.5209350585938 1389.883911132812 121.7387619018555 L 1389.883911132812 58.58094024658203 C 1389.883911132812 50.79876708984375 1388.46337890625 43.25021362304688 1385.661987304688 36.14549255371094 C 1384.316162109375 32.73204040527344 1382.650268554688 29.44003295898438 1380.711059570312 26.36076354980469 C 1378.790649414062 23.31184387207031 1376.585815429688 20.4449462890625 1374.1572265625 17.83984375 C 1371.729736328125 15.23603820800781 1369.059204101562 12.87239074707031 1366.219360351562 10.81439208984375 C 1363.354125976562 8.738037109375 1360.291625976562 6.954757690429688 1357.116455078125 5.51422119140625 C 1350.514526367188 2.518753051757812 1343.501586914062 1.000030517578125 1336.2724609375 1.000030517578125 L 54.6114501953125 1.000030517578125 M 54.6114501953125 3.0517578125e-05 C 54.6114501953125 3.0517578125e-05 650.7570190429688 3.0517578125e-05 971.17236328125 3.0517578125e-05 C 1291.587646484375 3.0517578125e-05 1336.2724609375 3.0517578125e-05 1336.2724609375 3.0517578125e-05 C 1366.43359375 3.0517578125e-05 1390.883911132812 26.22767639160156 1390.883911132812 58.58094024658203 L 1390.883911132812 121.7387619018555 C 1390.883911132812 154.092041015625 1366.43359375 180.3196716308594 1336.2724609375 180.3196716308594 C 1336.2724609375 180.3196716308594 1165.442993164062 180.3196716308594 845.0277709960938 180.3196716308594 C 524.6126708984375 180.3196716308594 54.6114501953125 180.3196716308594 54.6114501953125 180.3196716308594 C 24.4503173828125 180.3196716308594 0 154.092041015625 0 121.7387619018555 L 0 58.58094024658203 C 0 26.22767639160156 24.4503173828125 3.0517578125e-05 54.6114501953125 3.0517578125e-05 Z"/></g></g></svg>