<svg xmlns="http://www.w3.org/2000/svg" width="479.5" height="119.833" viewBox="0 0 479.5 119.833"><defs><style>.a{fill:#ef295e;stroke-linecap:round;}.b,.c{stroke:none;}.c{fill:#707070;}</style></defs><g class="a"><path class="b" d="M 434.1549377441406 119.3335113525391 L 45.34505844116211 119.3335113525391 C 39.30994033813477 119.3335113525391 33.45358657836914 117.7706832885742 27.93864631652832 114.6885070800781 C 22.59970664978027 111.7046279907227 17.80241203308105 107.4297409057617 13.67994117736816 101.9825668334961 C 9.549705505371094 96.52503967285156 6.306235313415527 90.16756439208984 4.039647102355957 83.08662414550781 C 1.690882325172424 75.74909973144531 0.5 67.95362854003906 0.5 59.91674423217773 C 0.5 51.87986373901367 1.690882325172424 44.08439254760742 4.039647102355957 36.74686050415039 C 6.306235313415527 29.66592025756836 9.549705505371094 23.30845069885254 13.67994117736816 17.85092163085938 C 17.80241203308105 12.4037446975708 22.59970664978027 8.128861427307129 27.93864631652832 5.144979476928711 C 33.45358657836914 2.062803030014038 39.30994033813477 0.4999795258045197 45.34505844116211 0.4999795258045197 L 434.1549377441406 0.4999795258045197 C 440.1900634765625 0.4999795258045197 446.0464172363281 2.062803030014038 451.5613403320312 5.144979476928711 C 456.9002990722656 8.128861427307129 461.6976318359375 12.4037446975708 465.820068359375 17.85092163085938 C 469.9502868652344 23.30845069885254 473.1937561035156 29.66592025756836 475.4603576660156 36.74686050415039 C 477.8091125488281 44.08439254760742 479 51.87986373901367 479 59.91674423217773 C 479 67.95362854003906 477.8091125488281 75.74909973144531 475.4603576660156 83.08662414550781 C 473.1937561035156 90.16756439208984 469.9502868652344 96.52503967285156 465.820068359375 101.9825668334961 C 461.6976318359375 107.4297409057617 456.9002990722656 111.7046279907227 451.5613403320312 114.6885070800781 C 446.0464172363281 117.7706832885742 440.1900634765625 119.3335113525391 434.1549377441406 119.3335113525391 Z"/><path class="c" d="M 45.34506225585938 0.9999771118164062 C 39.3963623046875 0.9999771118164062 33.6220703125 2.541389465332031 28.18258666992188 5.581451416015625 C 22.90435791015625 8.531394958496094 18.15911865234375 12.76091766357422 14.07864379882812 18.15268707275391 C 9.982574462890625 23.56504058837891 6.765167236328125 29.87227630615234 4.515838623046875 36.89927673339844 C 2.182891845703125 44.18744659423828 1 51.93162536621094 1 59.91674423217773 C 1 67.90186309814453 2.182891845703125 75.64604187011719 4.515838623046875 82.93421936035156 C 6.765167236328125 89.96121215820312 9.982574462890625 96.26844787597656 14.07864379882812 101.6808013916016 C 18.15911865234375 107.0725708007812 22.90435791015625 111.3020935058594 28.18258666992188 114.2520370483398 C 33.6220703125 117.2920989990234 39.3963623046875 118.8335113525391 45.34506225585938 118.8335113525391 L 434.1549377441406 118.8335113525391 C 440.1036376953125 118.8335113525391 445.8779296875 117.2920989990234 451.3174133300781 114.2520370483398 C 456.5956420898438 111.3020935058594 461.3408813476562 107.0725708007812 465.4213562011719 101.6808013916016 C 469.5174255371094 96.26844787597656 472.7348327636719 89.96121215820312 474.9841918945312 82.93421936035156 C 477.3171081542969 75.64604187011719 478.5 67.90186309814453 478.5 59.91674423217773 C 478.5 51.93162536621094 477.3171081542969 44.18744659423828 474.9841918945312 36.89927673339844 C 472.7348327636719 29.87227630615234 469.5174255371094 23.56504058837891 465.4213562011719 18.15268707275391 C 461.3408813476562 12.76091766357422 456.5956420898438 8.531394958496094 451.3174133300781 5.581451416015625 C 445.8779296875 2.541389465332031 440.1036376953125 0.9999771118164062 434.1549377441406 0.9999771118164062 L 45.34506225585938 0.9999771118164062 M 45.34506225585938 -2.288818359375e-05 L 434.1549377441406 -2.288818359375e-05 C 459.1983642578125 -2.288818359375e-05 479.5 26.82563018798828 479.5 59.91674423217773 C 479.5 93.00785827636719 459.1983642578125 119.8335113525391 434.1549377441406 119.8335113525391 L 45.34506225585938 119.8335113525391 C 20.3016357421875 119.8335113525391 0 93.00785827636719 0 59.91674423217773 C 0 26.82563018798828 20.3016357421875 -2.288818359375e-05 45.34506225585938 -2.288818359375e-05 Z"/></g></svg>