<svg xmlns="http://www.w3.org/2000/svg" xmlns:xlink="http://www.w3.org/1999/xlink" width="1362.826" height="172.697" viewBox="0 0 1362.826 172.697"><defs><style>.a{fill:#fff;}.b,.c{stroke:none;}.c{fill:#fff2f2;}.d{filter:url(#a);}</style><filter id="a" x="0" y="0" width="1362.826" height="172.697" filterUnits="userSpaceOnUse"><feOffset dx="10" dy="10" input="SourceAlpha"/><feGaussianBlur stdDeviation="5" result="b"/><feFlood flood-opacity="0.161"/><feComposite operator="in" in2="b"/><feComposite in="SourceGraphic"/></filter></defs><g class="d" transform="matrix(1, 0, 0, 1, 0, 0)"><g class="a" transform="translate(5 5)"><path class="b" d="M 1280.494140625 142.1972961425781 L 809.7549438476562 142.1972961425781 L 52.3317985534668 142.1972961425781 C 45.32712936401367 142.1972961425781 38.53279876708984 140.9822998046875 32.13729858398438 138.5859680175781 C 25.96329689025879 136.2726287841797 20.41929626464844 132.9616394042969 15.65913009643555 128.7449645996094 C 10.90346431732178 124.5321350097656 7.170464038848877 119.627799987793 4.5636305809021 114.1681365966797 C 1.867130517959595 108.5206298828125 0.4999638795852661 102.5219650268555 0.4999638795852661 96.33879852294922 L 0.4999638795852661 46.35846710205078 C 0.4999638795852661 40.17530059814453 1.867130517959595 34.17663192749023 4.5636305809021 28.52913284301758 C 7.170464038848877 23.06946563720703 10.90346431732178 18.16513252258301 15.65913009643555 13.95229911804199 C 20.41929626464844 9.73563289642334 25.96329689025879 6.424633026123047 32.13729858398438 4.111299514770508 C 38.53279876708984 1.714966177940369 45.32712936401367 0.4999661445617676 52.3317985534668 0.4999661445617676 L 930.6337890625 0.4999661445617676 L 1280.494140625 0.4999661445617676 C 1287.498779296875 0.4999661445617676 1294.293090820312 1.714966177940369 1300.688598632812 4.111299514770508 C 1306.86279296875 6.424633026123047 1312.40673828125 9.73563289642334 1317.166748046875 13.95229911804199 C 1321.922485351562 18.16513252258301 1325.655517578125 23.06946563720703 1328.262329101562 28.52913284301758 C 1330.958740234375 34.17663192749023 1332.325927734375 40.17530059814453 1332.325927734375 46.35846710205078 L 1332.325927734375 96.33879852294922 C 1332.325927734375 102.5219650268555 1330.958740234375 108.5206298828125 1328.262329101562 114.1681365966797 C 1325.655517578125 119.627799987793 1321.922485351562 124.5321350097656 1317.166748046875 128.7449645996094 C 1312.40673828125 132.9616394042969 1306.86279296875 136.2726287841797 1300.688598632812 138.5859680175781 C 1294.293090820312 140.9822998046875 1287.498779296875 142.1972961425781 1280.494140625 142.1972961425781 Z"/><path class="c" d="M 52.331787109375 0.999969482421875 C 45.3873291015625 0.999969482421875 38.6519775390625 2.204299926757812 32.312744140625 4.5794677734375 C 26.1962890625 6.871292114257812 20.704833984375 10.150634765625 15.9908447265625 14.32662963867188 C 11.2855224609375 18.49479675292969 7.5926513671875 23.34580230712891 5.0150146484375 28.74463653564453 C 2.350830078125 34.32430267333984 1 40.25046539306641 1 46.35846710205078 L 1 96.33879852294922 C 1 102.4468002319336 2.350830078125 108.3729705810547 5.0150146484375 113.95263671875 C 7.5926513671875 119.3514633178711 11.2855224609375 124.2024688720703 15.9908447265625 128.3706359863281 C 20.704833984375 132.546630859375 26.1962890625 135.8259735107422 32.312744140625 138.1177978515625 C 38.6519775390625 140.4929656982422 45.3873291015625 141.6972961425781 52.331787109375 141.6972961425781 L 1280.494140625 141.6972961425781 C 1287.438598632812 141.6972961425781 1294.174072265625 140.4929656982422 1300.513305664062 138.1177978515625 C 1306.629638671875 135.8259735107422 1312.121337890625 132.546630859375 1316.835327148438 128.3706359863281 C 1321.540405273438 124.2024688720703 1325.233276367188 119.3514633178711 1327.811157226562 113.95263671875 C 1330.47509765625 108.3729705810547 1331.825927734375 102.4468002319336 1331.825927734375 96.33879852294922 L 1331.825927734375 46.35846710205078 C 1331.825927734375 40.25046539306641 1330.47509765625 34.32430267333984 1327.811157226562 28.74463653564453 C 1325.233276367188 23.34580230712891 1321.540405273438 18.49479675292969 1316.835327148438 14.32662963867188 C 1312.121337890625 10.150634765625 1306.629638671875 6.871292114257812 1300.513305664062 4.5794677734375 C 1294.174072265625 2.204299926757812 1287.438598632812 0.999969482421875 1280.494140625 0.999969482421875 L 52.331787109375 0.999969482421875 M 52.331787109375 -3.0517578125e-05 C 52.331787109375 -3.0517578125e-05 623.5933227539062 -3.0517578125e-05 930.6337890625 -3.0517578125e-05 C 1237.67431640625 -3.0517578125e-05 1280.494140625 -3.0517578125e-05 1280.494140625 -3.0517578125e-05 C 1309.396240234375 -3.0517578125e-05 1332.825927734375 20.75546264648438 1332.825927734375 46.35846710205078 L 1332.825927734375 96.33879852294922 C 1332.825927734375 121.9418029785156 1309.396240234375 142.6972961425781 1280.494140625 142.6972961425781 C 1280.494140625 142.6972961425781 1116.79541015625 142.6972961425781 809.7548217773438 142.6972961425781 C 502.7142944335938 142.6972961425781 52.331787109375 142.6972961425781 52.331787109375 142.6972961425781 C 23.4298095703125 142.6972961425781 0 121.9418029785156 0 96.33879852294922 L 0 46.35846710205078 C 0 20.75546264648438 23.4298095703125 -3.0517578125e-05 52.331787109375 -3.0517578125e-05 Z"/></g></g></svg>