<svg xmlns="http://www.w3.org/2000/svg" xmlns:xlink="http://www.w3.org/1999/xlink" width="1351.168" height="168.569" viewBox="0 0 1351.168 168.569"><defs><style>.a{fill:#fff;}.b,.c{stroke:none;}.c{fill:#fff;}.d{filter:url(#a);}</style><filter id="a" x="0" y="0" width="1351.168" height="168.569" filterUnits="userSpaceOnUse"><feOffset dx="10" dy="10" input="SourceAlpha"/><feGaussianBlur stdDeviation="5" result="b"/><feFlood flood-opacity="0.161"/><feComposite operator="in" in2="b"/><feComposite in="SourceGraphic"/></filter></defs><g class="d" transform="matrix(1, 0, 0, 1, 0, 0)"><g class="a" transform="translate(5 5)"><path class="b" d="M 1269.293701171875 138.0690460205078 L 51.87402725219727 138.0690460205078 C 44.93869400024414 138.0690460205078 38.21102905273438 136.7032165527344 31.87802886962891 134.0093841552734 C 25.76069641113281 131.4073791503906 20.2663631439209 127.6820449829102 15.54819583892822 122.9370422363281 C 10.82969570159912 118.1918792724609 7.125195503234863 112.6663818359375 4.537528991699219 106.5138778686523 C 1.858362317085266 100.14404296875 0.5000289678573608 93.37754821777344 0.5000289678573608 86.40187835693359 L 0.5000289678573608 52.16721343994141 C 0.5000289678573608 45.19154739379883 1.858362317085266 38.42504501342773 4.537528991699219 32.05521392822266 C 7.125195503234863 25.90271186828613 10.82969570159912 20.37721252441406 15.54819583892822 15.63204574584961 C 20.2663631439209 10.88704586029053 25.76069641113281 7.161712646484375 31.87802886962891 4.559712409973145 C 38.21102905273438 1.86587917804718 44.93869400024414 0.5000458955764771 51.87402725219727 0.5000458955764771 L 1269.293701171875 0.5000458955764771 C 1276.22900390625 0.5000458955764771 1282.956665039062 1.86587917804718 1289.289672851562 4.559712409973145 C 1295.4072265625 7.161712646484375 1300.9013671875 10.88704586029053 1305.619750976562 15.63204574584961 C 1310.338134765625 20.37721252441406 1314.042724609375 25.90271186828613 1316.63037109375 32.05521392822266 C 1319.309326171875 38.42488098144531 1320.667724609375 45.19154739379883 1320.667724609375 52.16721343994141 L 1320.667724609375 86.40187835693359 C 1320.667724609375 93.37754821777344 1319.309326171875 100.1442108154297 1316.63037109375 106.5138778686523 C 1314.042724609375 112.6663818359375 1310.338134765625 118.1918792724609 1305.619750976562 122.9370422363281 C 1300.9013671875 127.6820449829102 1295.4072265625 131.4073791503906 1289.289672851562 134.0093841552734 C 1282.956665039062 136.7032165527344 1276.22900390625 138.0690460205078 1269.293701171875 138.0690460205078 Z"/><path class="c" d="M 51.8740234375 1.000045776367188 C 45.00634765625 1.000045776367188 38.344482421875 2.3525390625 32.07373046875 5.019882202148438 C 26.0159912109375 7.596542358398438 20.5751953125 11.28554534912109 15.9027099609375 15.98454284667969 C 11.229736328125 20.68387603759766 7.56103515625 26.15604400634766 4.9984130859375 32.24904632568359 C 2.34521484375 38.55704498291016 1 45.258544921875 1 52.16721343994141 L 1 86.40187835693359 C 1 93.310546875 2.34521484375 100.0120468139648 4.9984130859375 106.3200454711914 C 7.56103515625 112.4130477905273 11.229736328125 117.8852081298828 15.9027099609375 122.5845489501953 C 20.5751953125 127.2835464477539 26.0159912109375 130.9725494384766 32.07373046875 133.5492095947266 C 38.344482421875 136.216552734375 45.00634765625 137.5690460205078 51.8740234375 137.5690460205078 L 1269.293701171875 137.5690460205078 C 1276.161376953125 137.5690460205078 1282.8232421875 136.216552734375 1289.093994140625 133.5492095947266 C 1295.15185546875 130.9725494384766 1300.592529296875 127.2835464477539 1305.265014648438 122.5845489501953 C 1309.93798828125 117.8852081298828 1313.606811523438 112.4130477905273 1316.169311523438 106.3200454711914 C 1318.822509765625 100.0120468139648 1320.167724609375 93.310546875 1320.167724609375 86.40187835693359 L 1320.167724609375 52.16721343994141 C 1320.167724609375 45.258544921875 1318.822509765625 38.55704498291016 1316.169311523438 32.24904632568359 C 1313.606811523438 26.15604400634766 1309.93798828125 20.68387603759766 1305.265014648438 15.98454284667969 C 1300.592529296875 11.28554534912109 1295.15185546875 7.596542358398438 1289.093994140625 5.019882202148438 C 1282.8232421875 2.3525390625 1276.161376953125 1.000045776367188 1269.293701171875 1.000045776367188 L 51.8740234375 1.000045776367188 M 51.8740234375 4.57763671875e-05 L 1269.293701171875 4.57763671875e-05 C 1297.942993164062 4.57763671875e-05 1321.167724609375 23.35604858398438 1321.167724609375 52.16721343994141 L 1321.167724609375 86.40187835693359 C 1321.167724609375 115.2130432128906 1297.942993164062 138.5690460205078 1269.293701171875 138.5690460205078 L 51.8740234375 138.5690460205078 C 23.224853515625 138.5690460205078 0 115.2130432128906 0 86.40187835693359 L 0 52.16721343994141 C 0 23.35604858398438 23.224853515625 4.57763671875e-05 51.8740234375 4.57763671875e-05 Z"/></g></g></svg>