<svg xmlns="http://www.w3.org/2000/svg" xmlns:xlink="http://www.w3.org/1999/xlink" width="304" height="103" viewBox="0 0 304 103"><defs><style>.a{fill:#293462;}.b,.c{stroke:none;}.c{fill:#707070;}.d{filter:url(#a);}</style><filter id="a" x="0" y="0" width="304" height="103" filterUnits="userSpaceOnUse"><feOffset dx="10" dy="10" input="SourceAlpha"/><feGaussianBlur stdDeviation="5" result="b"/><feFlood flood-opacity="0.161"/><feComposite operator="in" in2="b"/><feComposite in="SourceGraphic"/></filter></defs><g class="d" transform="matrix(1, 0, 0, 1, 0, 0)"><g class="a" transform="translate(5 5)"><path class="b" d="M 227.2194976806641 72.5 L 176.0962524414062 72.5 L 46.78049850463867 72.5 C 40.51850128173828 72.5 34.44482040405273 71.54342651367188 28.72810745239258 69.65682220458984 C 23.21221351623535 67.83653259277344 18.26010704040527 65.23185729980469 14.00928592681885 61.91518020629883 C 9.767606735229492 58.60567855834961 6.438964366912842 54.75467681884766 4.115821361541748 50.46914291381836 C 1.716535687446594 46.043212890625 0.5 41.34332275390625 0.5 36.5 C 0.5 31.65667915344238 1.716535687446594 26.95678520202637 4.115821361541748 22.53085708618164 C 6.438964366912842 18.24532127380371 9.767606735229492 14.39432144165039 14.00928592681885 11.0848217010498 C 18.26010704040527 7.768142700195312 23.21221351623535 5.163464069366455 28.72810745239258 3.343178510665894 C 34.44482040405273 1.456571459770203 40.51850128173828 0.5 46.78049850463867 0.5 L 227.2194976806641 0.5 C 233.4815063476562 0.5 239.5552215576172 1.456571459770203 245.2718963623047 3.343178510665894 C 250.7877807617188 5.163464069366455 255.7399291992188 7.768142700195312 259.9907531738281 11.0848217010498 C 264.2323913574219 14.39432144165039 267.56103515625 18.24532127380371 269.8841857910156 22.53085708618164 C 272.2834777832031 26.95678520202637 273.5 31.65667915344238 273.5 36.5 C 273.5 41.34332275390625 272.2834777832031 46.043212890625 269.8841857910156 50.46914291381836 C 267.56103515625 54.75467681884766 264.2323913574219 58.60567855834961 259.9907531738281 61.91518020629883 C 255.7399291992188 65.23185729980469 250.7877807617188 67.83653259277344 245.2718963623047 69.65682220458984 C 239.5552215576172 71.54342651367188 233.4815063476562 72.5 227.2194976806641 72.5 Z"/><path class="c" d="M 46.78050231933594 1 C 40.57182312011719 1 34.55085754394531 1.948104858398438 28.88478088378906 3.817962646484375 C 23.42361450195312 5.620246887207031 18.52224731445312 8.197784423828125 14.31683349609375 11.47900009155273 C 10.12979125976562 14.74592971801758 6.845550537109375 18.54446411132812 4.55535888671875 22.76914215087891 C 2.19622802734375 27.12107086181641 1 31.74082183837891 1 36.5 C 1 41.25917816162109 2.19622802734375 45.87892913818359 4.55535888671875 50.23085784912109 C 6.845550537109375 54.45553588867188 10.12979125976562 58.25407028198242 14.31683349609375 61.52099990844727 C 18.52224731445312 64.80221557617188 23.42361450195312 67.37975311279297 28.88478088378906 69.18203735351562 C 34.55085754394531 71.05189514160156 40.57182312011719 72 46.78050231933594 72 L 227.2194976806641 72 C 233.4281768798828 72 239.4491424560547 71.05189514160156 245.1152191162109 69.18203735351562 C 250.5763854980469 67.37975311279297 255.4777526855469 64.80221557617188 259.6831665039062 61.52099990844727 C 263.8702087402344 58.25407028198242 267.1544494628906 54.45553588867188 269.4446411132812 50.23085784912109 C 271.8037719726562 45.87892913818359 273 41.25917816162109 273 36.5 C 273 31.74082183837891 271.8037719726562 27.12107086181641 269.4446411132812 22.76914215087891 C 267.1544494628906 18.54446411132812 263.8702087402344 14.74592971801758 259.6831665039062 11.47900009155273 C 255.4777526855469 8.197784423828125 250.5763854980469 5.620246887207031 245.1152191162109 3.817962646484375 C 239.4491424560547 1.948104858398438 233.4281768798828 1 227.2194976806641 1 L 46.78050231933594 1 M 46.78050231933594 0 L 227.2194976806641 0 C 253.0556793212891 0 274 16.34160614013672 274 36.5 C 274 56.65839385986328 253.0556793212891 73 227.2194976806641 73 L 46.78050231933594 73 C 20.94432067871094 73 0 56.65839385986328 0 36.5 C 0 16.34160614013672 20.94432067871094 0 46.78050231933594 0 Z"/></g></g></svg>