<svg xmlns="http://www.w3.org/2000/svg" xmlns:xlink="http://www.w3.org/1999/xlink" width="241" height="103" viewBox="0 0 241 103"><defs><style>.a{fill:#293462;}.b,.c{stroke:none;}.c{fill:#707070;}.d{filter:url(#a);}</style><filter id="a" x="0" y="0" width="241" height="103" filterUnits="userSpaceOnUse"><feOffset dx="10" dy="10" input="SourceAlpha"/><feGaussianBlur stdDeviation="5" result="b"/><feFlood flood-opacity="0.161"/><feComposite operator="in" in2="b"/><feComposite in="SourceGraphic"/></filter></defs><g class="d" transform="matrix(1, 0, 0, 1, 0, 0)"><g class="a" transform="translate(5 5)"><path class="b" d="M 174.9756011962891 72.5 L 135.6069488525391 72.5 L 36.02439498901367 72.5 C 31.2292366027832 72.5 26.57768440246582 71.54855346679688 22.19902610778809 69.67208099365234 C 17.96902656555176 67.85931396484375 14.16989517211914 65.26397705078125 10.90715789794922 61.95815658569336 C 7.643973827362061 58.65189361572266 5.081999778747559 54.80181503295898 3.292394638061523 50.51484298706055 C 1.439499974250793 46.07626342773438 0.5 41.36100006103516 0.5 36.5 C 0.5 31.63899993896484 1.439499974250793 26.92373657226562 3.292394638061523 22.48515701293945 C 5.081999778747559 18.19818496704102 7.643973827362061 14.34810543060303 10.90715789794922 11.04184246063232 C 14.16989517211914 7.736026287078857 17.96902656555176 5.140684127807617 22.19902610778809 3.327921152114868 C 26.57768440246582 1.451447367668152 31.2292366027832 0.5 36.02439498901367 0.5 L 174.9756011962891 0.5 C 179.7707672119141 0.5 184.4223175048828 1.451447367668152 188.8009796142578 3.327921152114868 C 193.0309753417969 5.140684127807617 196.8301086425781 7.736026287078857 200.0928497314453 11.04184246063232 C 203.3560333251953 14.34810543060303 205.9179992675781 18.19818496704102 207.7076110839844 22.48515701293945 C 209.5605010986328 26.92373657226562 210.5 31.63899993896484 210.5 36.5 C 210.5 41.36100006103516 209.5605010986328 46.07626342773438 207.7076110839844 50.51484298706055 C 205.9179992675781 54.80181503295898 203.3560333251953 58.65189361572266 200.0928497314453 61.95815658569336 C 196.8301086425781 65.26397705078125 193.0309753417969 67.85931396484375 188.8009796142578 69.67208099365234 C 184.4223175048828 71.54855346679688 179.7707672119141 72.5 174.9756011962891 72.5 Z"/><path class="c" d="M 36.02438354492188 1 C 31.29730224609375 1 26.71205139160156 1.937858581542969 22.39596557617188 3.787498474121094 C 18.22575378417969 5.574638366699219 14.48008728027344 8.133529663085938 11.26303100585938 11.3930549621582 C 8.045089721679688 14.65349960327148 5.51861572265625 18.45022201538086 3.753799438476562 22.67777633666992 C 1.926498413085938 27.05500030517578 1 31.70547103881836 1 36.5 C 1 41.29452514648438 1.926498413085938 45.94499969482422 3.753799438476562 50.32221984863281 C 5.51861572265625 54.54977798461914 8.045089721679688 58.34650039672852 11.26303100585938 61.6069450378418 C 14.48008728027344 64.86647033691406 18.22575378417969 67.42536163330078 22.39596557617188 69.21250152587891 C 26.71205139160156 71.06214141845703 31.29730224609375 72 36.02438354492188 72 L 174.9756164550781 72 C 179.7026977539062 72 184.2879486083984 71.06214141845703 188.6040344238281 69.21250152587891 C 192.7742462158203 67.42536163330078 196.5199127197266 64.86647033691406 199.7369689941406 61.6069450378418 C 202.9549102783203 58.34650039672852 205.4813842773438 54.54977798461914 207.2462005615234 50.32221984863281 C 209.0735015869141 45.94499969482422 210 41.29452514648438 210 36.5 C 210 31.70547103881836 209.0735015869141 27.05500030517578 207.2462005615234 22.67777633666992 C 205.4813842773438 18.45022201538086 202.9549102783203 14.65349960327148 199.7369689941406 11.3930549621582 C 196.5199127197266 8.133529663085938 192.7742462158203 5.574638366699219 188.6040344238281 3.787498474121094 C 184.2879486083984 1.937858581542969 179.7026977539062 1 174.9756164550781 1 L 36.02438354492188 1 M 36.02438354492188 0 L 174.9756164550781 0 C 194.871337890625 0 211 16.34160995483398 211 36.5 C 211 56.65838623046875 194.871337890625 73 174.9756164550781 73 L 36.02438354492188 73 C 16.128662109375 73 0 56.65838623046875 0 36.5 C 0 16.34160995483398 16.128662109375 0 36.02438354492188 0 Z"/></g></g></svg>