<svg xmlns="http://www.w3.org/2000/svg" xmlns:xlink="http://www.w3.org/1999/xlink" width="1420.884" height="200" viewBox="0 0 1420.884 200"><defs><style>.a{fill:#fff;opacity:0.22;}.b,.c{stroke:none;}.c{fill:#585757;}.d{filter:url(#a);}</style><filter id="a" x="0" y="0" width="1420.884" height="200" filterUnits="userSpaceOnUse"><feOffset dx="10" dy="10" input="SourceAlpha"/><feGaussianBlur stdDeviation="5" result="b"/><feFlood flood-opacity="0.161"/><feComposite operator="in" in2="b"/><feComposite in="SourceGraphic"/></filter></defs><g class="d" transform="matrix(1, 0, 0, 1, 0, 0)"><g class="a" transform="translate(5 5)"><path class="b" d="M 1336.272705078125 169.5 L 54.61140823364258 169.5 C 47.31668472290039 169.5 40.23941040039062 167.8252716064453 33.57613754272461 164.5225524902344 C 30.37159156799316 162.9340057373047 27.28013801574707 160.9676361083984 24.38795471191406 158.6778106689453 C 21.52159118652344 156.4083709716797 18.82595634460449 153.8018188476562 16.37559127807617 150.93017578125 C 13.92413711547852 148.0572662353516 11.69831943511963 144.8958129882812 9.759955406188965 141.5332794189453 C 7.80213737487793 138.1372680664062 6.120682716369629 134.5065460205078 4.761955738067627 130.7420043945312 C 1.933955550193787 122.906364440918 0.4999555647373199 114.5818176269531 0.4999555647373199 106 L 0.4999555647373199 64 C 0.4999555647373199 55.41818237304688 1.933955550193787 47.09363555908203 4.761955738067627 39.25799942016602 C 6.120682716369629 35.49345397949219 7.80213737487793 31.86272811889648 9.759955406188965 28.46672821044922 C 11.69831943511963 25.10418128967285 13.92413711547852 21.94272804260254 16.37559127807617 19.0698184967041 C 18.82595634460449 16.19818115234375 21.52159118652344 13.59163665771484 24.38795471191406 11.32218170166016 C 27.28013801574707 9.032363891601562 30.37159156799316 7.065999984741211 33.57613754272461 5.477454662322998 C 40.23941040039062 2.174727201461792 47.31668472290039 0.5 54.61140823364258 0.5 L 1336.272705078125 0.5 C 1343.5673828125 0.5 1350.644653320312 2.174727201461792 1357.307739257812 5.477454662322998 C 1360.512451171875 7.065999984741211 1363.603759765625 9.032363891601562 1366.495971679688 11.32218170166016 C 1369.3623046875 13.59163665771484 1372.05810546875 16.19818115234375 1374.50830078125 19.0698184967041 C 1376.959716796875 21.94272804260254 1379.185546875 25.10418128967285 1381.123901367188 28.46672821044922 C 1383.081787109375 31.86272811889648 1384.76318359375 35.49345397949219 1386.121948242188 39.25799942016602 C 1388.949951171875 47.09363555908203 1390.383911132812 55.41818237304688 1390.383911132812 64 L 1390.383911132812 106 C 1390.383911132812 114.5818176269531 1388.949951171875 122.906364440918 1386.121948242188 130.7420043945312 C 1384.76318359375 134.5065460205078 1383.081787109375 138.1372680664062 1381.123901367188 141.5332794189453 C 1379.185546875 144.8958129882812 1376.959716796875 148.0572662353516 1374.50830078125 150.93017578125 C 1372.05810546875 153.8018188476562 1369.3623046875 156.4083709716797 1366.495971679688 158.6778106689453 C 1363.603759765625 160.9676361083984 1360.512451171875 162.9340057373047 1357.307739257812 164.5225524902344 C 1350.644653320312 167.8252716064453 1343.5673828125 169.5 1336.272705078125 169.5 Z"/><path class="c" d="M 54.6114501953125 1 C 47.394287109375 1 40.3917236328125 2.657089233398438 33.79833984375 5.925460815429688 C 30.6248779296875 7.498367309570312 27.563232421875 9.445999145507812 24.6983642578125 11.71418762207031 C 21.857421875 13.96345520019531 19.1851806640625 16.54745483398438 16.7559814453125 19.39436340332031 C 14.3243408203125 22.24400329589844 12.1163330078125 25.38037109375 10.1929931640625 28.71636962890625 C 8.25 32.0869140625 6.5810546875 35.69073486328125 5.232177734375 39.42781066894531 C 2.4239501953125 47.20890808105469 1 55.47618103027344 1 64 L 1 106 C 1 114.5238189697266 2.4239501953125 122.7910919189453 5.232177734375 130.5721740722656 C 6.5810546875 134.3092651367188 8.25 137.9130859375 10.1929931640625 141.2836303710938 C 12.1163330078125 144.61962890625 14.3243408203125 147.7559967041016 16.7559814453125 150.6056365966797 C 19.1851806640625 153.4525451660156 21.857421875 156.0365447998047 24.6983642578125 158.2858123779297 C 27.563232421875 160.5540008544922 30.6248779296875 162.5016326904297 33.79833984375 164.0745391845703 C 40.3917236328125 167.3429107666016 47.394287109375 169 54.6114501953125 169 L 1336.2724609375 169 C 1343.489624023438 169 1350.4921875 167.3429107666016 1357.085571289062 164.0745391845703 C 1360.259033203125 162.5016326904297 1363.320678710938 160.5540008544922 1366.185546875 158.2858123779297 C 1369.026489257812 156.0365447998047 1371.69873046875 153.4525451660156 1374.1279296875 150.6056365966797 C 1376.5595703125 147.7559967041016 1378.767578125 144.61962890625 1380.69091796875 141.2836303710938 C 1382.633911132812 137.9130859375 1384.302856445312 134.3092651367188 1385.651733398438 130.5721740722656 C 1388.4599609375 122.7910919189453 1389.883911132812 114.5238189697266 1389.883911132812 106 L 1389.883911132812 64 C 1389.883911132812 55.47618103027344 1388.4599609375 47.20890808105469 1385.651733398438 39.42781066894531 C 1384.302856445312 35.69073486328125 1382.633911132812 32.0869140625 1380.69091796875 28.71636962890625 C 1378.767578125 25.38037109375 1376.5595703125 22.24400329589844 1374.1279296875 19.39436340332031 C 1371.69873046875 16.54745483398438 1369.026489257812 13.96345520019531 1366.185546875 11.71418762207031 C 1363.320678710938 9.445999145507812 1360.259033203125 7.498367309570312 1357.085571289062 5.925460815429688 C 1350.4921875 2.657089233398438 1343.489624023438 1 1336.2724609375 1 L 54.6114501953125 1 M 54.6114501953125 0 L 1336.2724609375 0 C 1366.43359375 0 1390.883911132812 28.65382385253906 1390.883911132812 64 L 1390.883911132812 106 C 1390.883911132812 141.3461761474609 1366.43359375 170 1336.2724609375 170 L 54.6114501953125 170 C 24.4503173828125 170 0 141.3461761474609 0 106 L 0 64 C 0 28.65382385253906 24.4503173828125 0 54.6114501953125 0 Z"/></g></g></svg>